<?xml version="1.0" encoding="utf-8"?>
<!-- Generator: Adobe Illustrator 16.0.4, SVG Export Plug-In . SVG Version: 6.00 Build 0)  -->
<!DOCTYPE svg PUBLIC "-//W3C//DTD SVG 1.1//EN" "http://www.w3.org/Graphics/SVG/1.1/DTD/svg11.dtd">
<svg version="1.1" id="Layer_1" xmlns="http://www.w3.org/2000/svg" xmlns:xlink="http://www.w3.org/1999/xlink" x="0px" y="0px"
	 width="167.237px" height="116.662px" viewBox="0 0 167.237 116.662" enable-background="new 0 0 167.237 116.662"
	 xml:space="preserve">
<g>
	<g>
		<path fill="#0089CE" d="M15.636,33.742c1.062-0.469,1.437-0.687,1.562-1.593c0.125-1,0.188-2.78,0.188-4.31
			c0-1.343-0.062-2.437-0.125-3.061c-0.031-0.438-0.125-0.562-1.624-0.906c-0.125-0.062-0.156-0.156-0.031-0.781
			c0-0.093,0.094-0.156,0.343-0.281c1.375-0.594,2.688-1.312,2.937-1.468c0.156-0.094,0.312-0.125,0.469-0.125
			s0.281,0.094,0.281,0.281c0.062,0.438,0.125,1.093,0.125,1.655c0,0.094,0.124,0.188,0.249,0.156c1.375-0.718,2-1.062,2.874-1.437
			c0.562-0.25,1.249-0.438,1.874-0.438c0.938,0,1.562,0.219,2.249,0.75c0.874,0.688,1.343,1.906,1.499,3.311
			c0.062,0.687,0.062,1.562,0.062,2.936c0,2.343,0,3.717,0,4.561c0,0.25,0.062,0.281,0.188,0.281c0.281,0,1.219-0.094,1.844-0.125
			c0.094,0,0.156,0.125,0.156,0.344c0,0.25-0.094,0.812-0.156,0.937c-0.062,0.156-0.125,0.156-0.281,0.156
			c-3.093,0-4.186,0.156-5.467,0.156c-0.188,0-0.312-0.031-0.375-0.156l-0.125-0.718c1-0.438,1.281-0.625,1.406-1.593
			c0.156-1.093,0.25-2.905,0.25-4.498c0-1.874-0.062-2.717-0.875-3.561c-0.531-0.5-1.219-0.75-2.124-0.75
			c-0.843,0-2.03,0.469-2.655,0.843c-0.344,0.219-0.375,0.375-0.406,0.781c-0.062,1.218-0.062,5.841-0.062,7.559
			c0,0.468,0.094,0.562,1.844,0.843c0.188,0.062,0.25,0.125,0.188,0.312l-0.188,0.781H18.76c-1.375,0-2.438,0.156-3.093,0.156
			c-0.062,0-0.125-0.062-0.094-0.219L15.636,33.742z"/>
		<path fill="#0089CE" d="M41.648,22.466c0.656,0.562,1.031,1.312,1.344,2.405c0.375-0.062,0.968-0.188,1.062-0.062
			c0.125,0.125,0.125,0.219,0.062,0.312c-0.094,0.344-0.344,1-0.718,1.093c-2.188,0.562-6.592,1.375-7.935,1.781
			c-0.218,0.062-0.343,0.218-0.343,0.562c0.094,2.936,1.873,4.217,3.967,4.217c1.529,0,2.936-0.594,4.123-1.625
			c0.156-0.187,0.593-0.125,0.562-0.031c-0.031,1.031-0.094,1.187-0.344,1.406c-1.499,1.218-3.061,1.874-4.185,2.187
			c-0.438,0.156-0.906,0.188-1.281,0.188c-2.405,0-3.873-1.437-4.311-1.874c-0.531-0.625-1.468-2.093-1.468-4.186
			c0-2.905,1.687-5.154,3.561-6.435c0.843-0.593,2.062-1.062,2.999-1.062C39.962,21.341,41.086,21.935,41.648,22.466z
			 M37.619,22.716c-0.25,0-0.562,0.125-0.875,0.312c-0.968,0.656-1.529,2.155-1.498,3.779c1.654-0.375,3.186-0.625,4.591-0.968
			c0.281-0.062,0.406-0.156,0.406-0.5C40.243,24.34,39.088,22.716,37.619,22.716z"/>
		<path fill="#0089CE" d="M51.117,22.778c-1.625,0.281-1.719,0.343-1.5,1.25c0.156,0.656,1.438,4.185,2.499,6.778
			c0.062,0.156,0.25,0.125,0.344-0.062c0.905-1.937,1.624-3.499,2.499-5.56c0.125-0.312,0.156-0.5,0-0.937
			c-0.312-1-0.469-1.093-1.844-1.343c0-0.156,0.062-0.469,0.156-0.75c0.062-0.25,0.188-0.343,0.406-0.343
			c1.812,0,3.654,0.031,5.186-0.062c0,0.781,0,1.062-0.156,1.093c-1.156,0.281-1.406,0.406-1.25,0.968
			c0.625,2.062,1.594,4.81,2.53,7.184c0.031,0.125,0.219,0.218,0.312,0.062c0.625-1.281,1.78-4.154,2.343-5.685
			c0.219-0.687,0.438-1.312,0.438-1.624c0.031-0.438-0.375-0.656-1.875-0.875c0-0.344,0.188-0.875,0.281-1.062
			c2.499-0.031,3.062-0.031,3.717-0.062c0.531-0.031,0.875-0.062,1.062-0.062c0.125,0,0.219,0,0.219,0.188v0.406
			c0,0.281,0,0.375-0.375,0.562c-0.625,0.375-0.875,0.75-1.343,1.655c-0.625,1.156-2.655,5.622-3.468,7.34
			c-0.655,1.468-1.03,2.374-1.218,2.749c-0.124,0.281-0.343,0.406-0.968,0.406c-0.281,0-0.375-0.062-0.5-0.375
			c-0.844-2.499-1.78-5.091-2.779-7.59c-0.062-0.188-0.188-0.219-0.25-0.125c-1.906,3.936-2.594,5.56-3.562,7.777
			c-0.062,0.156-0.187,0.281-0.374,0.312c-0.25,0-0.25,0-0.438-0.062c-0.25-0.062-0.438-0.219-0.531-0.562
			c-1.031-3.061-2.249-6.153-3.561-9.464c-0.594-1.468-0.812-1.687-1.906-1.999c-0.094-0.031-0.156-0.062-0.094-0.219l0.219-0.625
			c0.031-0.219,0.094-0.25,0.219-0.25c1.75,0,3.249-0.094,5.029-0.094c0.25,0,0.281,0.062,0.312,0.25L51.117,22.778z"/>
		<path fill="#0089CE" d="M64.125,49.905c0.031,0.219-0.062,0.281-0.188,0.375c-0.469,0.219-1.249,0.531-1.468,0.812
			c-0.125,0.188-0.125,0.406,0.156,1.25c0.405,1.312,1.655,5.123,2.187,6.122c0.094,0.219,0.281,0.156,0.406-0.062
			c0.999-1.937,2.029-4.342,2.498-5.685c0.25-0.625,0.406-1.155,0.375-1.437c0.031-0.344-0.438-0.593-1.405-0.843
			c-0.156-0.062-0.125-0.188,0.031-0.656c0.125-0.312,0.188-0.375,0.312-0.375c1.188,0,2.75-0.094,3.687-0.094
			c0.188,0,0.25,0.031,0.343,0.156c0.125,0.125,0.219,0.343,0.281,0.531s0.031,0.312-0.094,0.438
			c-1.561,1.499-3.748,6.122-5.559,9.901c-0.5,1-0.688,1.624-0.75,1.749c-0.062,0.219-0.125,0.312-0.25,0.375
			c-0.25,0.062-0.5,0.094-0.781,0.094c-0.25,0-0.344-0.188-0.594-0.843c-0.343-0.844-1.811-4.873-3.248-8.715
			c-0.625-1.687-0.781-2.124-1.968-2.499c-0.093-0.031,0.312-1.093,0.5-1.093c1.53,0,4.123,0,5.341-0.094
			c0.156,0,0.188,0.031,0.188,0.125V49.905z"/>
		<path fill="#0089CE" d="M81.471,50.093c0.656,0.562,1.031,1.312,1.344,2.405c0.375-0.062,0.968-0.188,1.062-0.062
			c0.125,0.125,0.125,0.219,0.062,0.312c-0.094,0.344-0.344,1-0.718,1.093c-2.188,0.562-6.592,1.375-7.935,1.781
			c-0.218,0.062-0.343,0.218-0.343,0.562c0.094,2.936,1.873,4.217,3.967,4.217c1.529,0,2.936-0.594,4.123-1.625
			c0.156-0.187,0.593-0.125,0.562-0.031c-0.031,1.031-0.094,1.187-0.344,1.406c-1.499,1.218-3.061,1.874-4.185,2.187
			c-0.438,0.156-0.906,0.188-1.281,0.188c-2.405,0-3.873-1.437-4.311-1.874c-0.531-0.625-1.468-2.093-1.468-4.186
			c0-2.905,1.687-5.154,3.561-6.435c0.843-0.593,2.062-1.062,2.999-1.062C79.784,48.968,80.908,49.562,81.471,50.093z
			 M77.441,50.343c-0.25,0-0.562,0.125-0.875,0.312c-0.968,0.656-1.529,2.155-1.498,3.779c1.654-0.375,3.186-0.625,4.591-0.968
			c0.281-0.062,0.406-0.156,0.406-0.5C80.065,51.967,78.91,50.343,77.441,50.343z"/>
		<path fill="#0089CE" d="M85.761,61.369c1.062-0.469,1.437-0.687,1.562-1.593c0.125-1,0.188-2.78,0.188-4.31
			c0-1.343-0.062-2.437-0.125-3.061c-0.031-0.438-0.125-0.562-1.624-0.906c-0.125-0.062-0.156-0.156-0.031-0.781
			c0-0.093,0.094-0.156,0.343-0.281c1.375-0.594,2.688-1.312,2.937-1.468c0.156-0.094,0.312-0.125,0.469-0.125
			s0.281,0.094,0.281,0.281c0.062,0.438,0.125,1.093,0.125,1.655c0,0.094,0.124,0.188,0.249,0.156c1.375-0.718,2-1.062,2.874-1.437
			c0.562-0.25,1.249-0.438,1.874-0.438c0.938,0,1.562,0.219,2.249,0.75c0.874,0.688,1.343,1.906,1.499,3.311
			c0.062,0.687,0.062,1.562,0.062,2.936c0,2.343,0,3.717,0,4.561c0,0.25,0.062,0.281,0.188,0.281c0.281,0,1.219-0.094,1.844-0.125
			c0.094,0,0.156,0.125,0.156,0.344c0,0.25-0.094,0.812-0.156,0.937c-0.062,0.156-0.125,0.156-0.281,0.156
			c-3.093,0-4.186,0.156-5.467,0.156c-0.188,0-0.312-0.031-0.375-0.156l-0.125-0.718c1-0.438,1.281-0.625,1.406-1.593
			c0.156-1.093,0.25-2.905,0.25-4.498c0-1.874-0.062-2.717-0.875-3.561c-0.531-0.5-1.219-0.75-2.124-0.75
			c-0.843,0-2.03,0.469-2.655,0.843c-0.344,0.219-0.375,0.375-0.406,0.781c-0.062,1.218-0.062,5.841-0.062,7.559
			c0,0.468,0.094,0.562,1.844,0.843c0.188,0.062,0.25,0.125,0.188,0.312l-0.188,0.781h-2.967c-1.375,0-2.438,0.156-3.093,0.156
			c-0.062,0-0.125-0.062-0.094-0.219L85.761,61.369z"/>
		<path fill="#0089CE" d="M106.52,47.094c0,0.469-0.125,2.187-0.125,2.499c1.562,0,3.561-0.188,4.686-0.188
			c0.375,0,0.406,0.031,0.375,0.343c-0.031,0.312-0.094,0.688-0.219,1.093c-0.062,0.438-0.25,0.5-0.531,0.5
			c-0.938,0.031-2.436,0.031-4.248,0.094c-0.062,0-0.094,0.062-0.156,0.468c-0.125,1.562-0.125,4.81-0.125,6.56
			c0,1.468,1.031,2.218,2.437,2.218c0.75,0,1.343-0.25,2.03-0.719c0.219-0.156,0.312-0.156,0.375,0
			c0.094,0.188,0.156,0.5,0.156,0.719c0,0.156-0.062,0.25-0.312,0.375c-1.375,0.812-2.623,1.531-4.217,1.531
			c-0.656,0-1.874-0.281-2.561-1.125c-0.438-0.562-0.531-1.156-0.469-2.374c0.062-1.937,0.094-6.31,0.156-7.184
			c0-0.218-0.156-0.437-0.375-0.437c-0.438-0.031-1.062-0.031-1.312-0.062c-0.156,0-0.312-0.375-0.219-0.469
			c1.188-1,3.312-2.967,4.123-3.842c0.156-0.188,0.312-0.25,0.406-0.25S106.52,46.938,106.52,47.094z"/>
		<path fill="#0089CE" d="M117.694,49.5c0.03,0.25,0,0.937-0.062,2.311c-0.062,1.562-0.156,4.529-0.156,6.591
			c0,1.53,1.655,2.155,2.718,2.155c1.093-0.031,2.123-0.5,2.936-1.125c0.219-0.219,0.344-0.375,0.406-0.812
			c0.125-0.875,0.219-2.155,0.219-3.78c0-2.093,0-2.874-0.375-3.373c-0.219-0.312-0.562-0.406-1.656-0.719
			c-0.187-0.031-0.249-0.125-0.28-0.218c-0.062-0.156-0.125-0.594-0.125-0.688s0-0.125,0.094-0.156
			c0.125-0.031,2.968-0.375,4.403-0.375c0.375,0,0.5,0.125,0.531,0.375c0.062,0.312,0.062,0.531,0.062,1.468
			c-0.031,0.968-0.156,2.093-0.156,4.154v3.155c0,1.062,0.125,1.78,0.156,1.968s0.125,0.219,0.312,0.188
			c0.156,0,0.938-0.188,1.656-0.375c0.125-0.062,0.468,0.219,0.405,0.375c-0.28,1.124-0.343,1.218-0.53,1.218
			c-1.688,0.188-3.468,0.719-3.998,0.812c-0.281,0.031-0.469,0.031-0.594-0.156c-0.188-0.219-0.281-0.312-0.281-0.531l0.031-1.312
			c-0.75,0.343-1.937,0.968-2.779,1.405c-0.719,0.344-1.469,0.531-2.062,0.531c-1.218,0-2.498-0.375-3.248-1.593
			c-0.375-0.562-0.406-1.437-0.406-2.155c0-3.186,0.094-5.372,0.062-6.465c0-0.562-0.125-0.718-1.28-1.406
			c-0.156-0.094-0.281-0.219-0.375-0.718c-0.031-0.344,0-0.406,0.281-0.438c0.499-0.125,3.342-0.875,3.686-0.875
			C117.569,48.937,117.632,49.125,117.694,49.5z"/>
		<path fill="#0089CE" d="M131.123,61.119c0.749-0.281,0.874-0.344,0.968-0.781c0.062-0.375,0.094-1.281,0.094-4.061v-2.842
			c0-0.875-0.125-1.031-1.249-1.406c-0.281-0.062-0.469-0.625-0.406-0.875c1.155-0.781,2.623-1.53,3.654-2.218
			c0.156-0.094,0.344-0.156,0.406-0.156c0.156,0.031,0.344,0.281,0.312,0.688c-0.062,0.718-0.156,1.499-0.125,2.311
			c0.688-0.281,2.654-1.843,3.061-2.155c0.344-0.219,0.719-0.469,1.031-0.469c0.812,0,1.811,0.812,1.811,1.593
			c0,0.562-0.78,1.437-1.123,1.75c-0.219,0.156-0.406,0.25-0.594,0.25c-0.156,0-0.344-0.062-0.469-0.187
			c-0.25-0.281-0.781-0.688-1.344-0.688c-0.624,0-1.498,0.594-1.967,1.062c-0.344,0.312-0.406,0.688-0.406,2.218v4.029
			c0,0.843,0.031,1.218,0.125,1.406c0.094,0.187,0.219,0.25,0.594,0.25l1.779-0.062c0.156,0,0.344,0.188,0.312,0.344l-0.25,1.093
			h-4.404c-0.999,0-1.779,0.062-1.998,0.062c-0.156,0-0.219-0.094-0.156-0.281L131.123,61.119z"/>
		<path fill="#0089CE" d="M151.242,50.093c0.656,0.562,1.031,1.312,1.344,2.405c0.375-0.062,0.968-0.188,1.062-0.062
			c0.125,0.125,0.125,0.219,0.062,0.312c-0.094,0.344-0.344,1-0.718,1.093c-2.188,0.562-6.592,1.375-7.935,1.781
			c-0.218,0.062-0.343,0.218-0.343,0.562c0.094,2.936,1.873,4.217,3.967,4.217c1.529,0,2.936-0.594,4.123-1.625
			c0.156-0.187,0.593-0.125,0.562-0.031c-0.031,1.031-0.094,1.187-0.344,1.406c-1.499,1.218-3.061,1.874-4.185,2.187
			c-0.438,0.156-0.906,0.188-1.281,0.188c-2.405,0-3.873-1.437-4.311-1.874c-0.531-0.625-1.468-2.093-1.468-4.186
			c0-2.905,1.687-5.154,3.561-6.435c0.843-0.593,2.062-1.062,2.999-1.062C149.556,48.968,150.68,49.562,151.242,50.093z
			 M147.213,50.343c-0.25,0-0.562,0.125-0.875,0.312c-0.968,0.656-1.529,2.155-1.498,3.779c1.654-0.375,3.186-0.625,4.591-0.968
			c0.281-0.062,0.406-0.156,0.406-0.5C149.837,51.967,148.682,50.343,147.213,50.343z"/>
		<path fill="#0089CE" d="M23.632,92.818c-1.03,0.656-2.28,0.937-3.499,0.937c-0.937,0-2.373-0.219-2.873-0.312
			c-0.562-0.125-0.75-0.156-1.219,0.062c-0.031,0.031-0.156,0-0.28-0.062c-0.094-0.094-0.125-0.219-0.094-0.375
			c0.155-1.218,0.124-2.374,0-3.686c0-0.125,0-0.219,0.094-0.281c0.124-0.062,0.312-0.125,0.874-0.25
			c0.281,0.906,0.812,1.874,1.5,2.592c0.874,0.906,1.748,1.187,2.217,1.187c0.844,0,2.156-0.656,2.156-1.812
			c0-1.812-2-2.499-3.03-3.061c-0.874-0.469-3.343-1.531-3.343-3.717c0-1.093,0.5-1.968,1.531-2.811
			c0.906-0.718,2.154-1.031,2.998-1.031s1.562,0.125,2.249,0.156c0.312,0,0.5-0.031,0.594-0.094c0.094-0.031,0.156-0.031,0.25,0.031
			c0.093,0.094,0.093,0.156,0.093,0.219c0.031,0.968,0.281,2.062,0.625,3.342c0.031,0.125-0.219,0.312-0.312,0.312
			c-0.499,0-0.718-0.062-1.03-0.468c-0.53-0.843-1.374-2.312-2.999-2.312c-0.655,0-1.529,0.469-1.529,1.624
			c0,1.468,1.436,2.124,2.811,2.812c0.906,0.468,3.842,1.593,3.842,4.248C25.256,91.037,24.787,92.037,23.632,92.818z"/>
		<path fill="#0089CE" d="M41.094,86.946c0,3.342-2.156,5.091-2.655,5.403c-1.374,0.812-2.999,1.437-4.498,1.437
			c-1.28,0-3.811-0.75-5.06-2.405c-1.031-1.312-1.438-3.092-1.438-4.248c0-1.343,0.5-2.999,1.344-4.029
			c0.75-0.968,1.312-1.437,2.248-1.937c1.094-0.531,2.687-1.031,3.748-1.031C37.221,80.136,41.094,82.323,41.094,86.946z
			 M31.723,82.323c-0.906,0.937-1.249,2.155-1.249,4.311c0,1.999,0.843,3.436,1.562,4.248c1.125,1.218,2.249,1.499,3.092,1.499
			c0.438,0,1.156-0.156,1.625-0.593c0.75-0.719,1.374-1.937,1.374-3.78c0-1.874-0.53-4.061-1.937-5.341
			c-0.656-0.562-1.718-1.125-2.748-1.125C32.973,81.542,32.254,81.792,31.723,82.323z"/>
		<path fill="#0089CE" d="M50.502,82.542c-0.5,0-1.28-0.031-2.686-0.031c-0.219,0-0.312,0.188-0.312,1.53v5.903
			c0,1.843,0.125,2.124,0.438,2.124c0.219,0,1.623-0.094,1.873-0.094c0.125,0,0.219,0.125,0.219,0.875
			c0,0.562-0.094,0.593-0.5,0.593h-3.467c-0.812,0-2.561,0.156-2.904,0.156c-0.281,0-0.312-0.031-0.281-0.219
			c0.125-0.812,0.188-0.906,0.375-0.968c1.624-0.406,1.655-0.5,1.655-4.061v-5.216c0-0.5-0.094-0.625-0.78-0.687l-0.906-0.062
			c-0.125,0-0.281-0.188-0.25-0.312l0.281-0.593c0.125-0.281,0.219-0.344,0.375-0.375c0.156-0.062,0.905-0.25,1.28-0.343v-1.062
			c0-2.343,0.312-4.092,1.874-5.685c0.875-0.875,2.187-1.78,3.498-2.28c0.75-0.281,1.469-0.469,2.062-0.469
			c0.906,0,1.999,0.438,2.405,1.031c0.156,0.188,0.188,0.375,0.188,0.625c0,0.406-0.469,0.968-0.844,1.343
			c-0.125,0.094-0.312,0.188-0.562,0.188c-0.374,0-0.749-0.25-1.404-0.687c-0.75-0.5-1.219-0.656-1.75-0.656
			s-1.062,0.219-1.53,0.719c-0.812,0.906-1.249,2.749-1.249,6.497c0,0.25,0.219,0.438,0.375,0.438c1.093,0,3.092-0.156,3.248-0.156
			c0.219,0,0.469,0.25,0.5,0.406c0.062,0.156,0.094,0.906,0.094,1.125c0,0.25-0.094,0.406-0.344,0.406H50.502z"/>
		<path fill="#0089CE" d="M57.956,78.325c0,0.469-0.124,2.187-0.124,2.499c1.561,0,3.561-0.188,4.685-0.188
			c0.374,0,0.405,0.031,0.374,0.343c-0.031,0.312-0.093,0.688-0.218,1.093c-0.062,0.438-0.25,0.5-0.531,0.5
			c-0.937,0.031-2.437,0.031-4.248,0.094c-0.062,0-0.093,0.062-0.155,0.468c-0.125,1.562-0.125,4.81-0.125,6.56
			c0,1.468,1.03,2.218,2.436,2.218c0.75,0,1.344-0.25,2.03-0.719c0.219-0.156,0.312-0.156,0.375,0
			c0.094,0.188,0.156,0.5,0.156,0.719c0,0.156-0.062,0.25-0.312,0.375c-1.374,0.812-2.624,1.531-4.217,1.531
			c-0.655,0-1.874-0.281-2.562-1.125c-0.438-0.562-0.531-1.156-0.469-2.374c0.062-1.937,0.094-6.31,0.156-7.184
			c0-0.218-0.156-0.437-0.374-0.437c-0.438-0.031-1.062-0.031-1.312-0.062c-0.156,0-0.312-0.375-0.219-0.469
			c1.187-1,3.311-2.967,4.123-3.842c0.156-0.188,0.312-0.25,0.406-0.25C57.925,78.075,57.956,78.168,57.956,78.325z"/>
		<path fill="#0089CE" d="M70.542,81.636c-1.624,0.281-1.718,0.343-1.499,1.25c0.156,0.656,1.437,4.185,2.498,6.778
			c0.062,0.156,0.25,0.125,0.344-0.062c0.906-1.937,1.625-3.499,2.5-5.56c0.124-0.312,0.155-0.5,0-0.937
			c-0.312-1-0.469-1.093-1.844-1.343c0-0.156,0.062-0.469,0.156-0.75c0.062-0.25,0.188-0.343,0.406-0.343
			c1.812,0,3.654,0.031,5.186-0.062c0,0.781,0,1.062-0.156,1.093c-1.156,0.281-1.406,0.406-1.25,0.968
			c0.625,2.062,1.593,4.81,2.529,7.184c0.031,0.125,0.219,0.218,0.312,0.062c0.625-1.281,1.781-4.154,2.344-5.685
			c0.219-0.687,0.437-1.312,0.437-1.624c0.031-0.438-0.374-0.656-1.874-0.875c0-0.344,0.188-0.875,0.281-1.062
			c2.498-0.031,3.061-0.031,3.717-0.062c0.531-0.031,0.875-0.062,1.062-0.062c0.125,0,0.219,0,0.219,0.188v0.406
			c0,0.281,0,0.375-0.375,0.562c-0.625,0.375-0.875,0.75-1.344,1.655c-0.625,1.156-2.654,5.622-3.467,7.34
			c-0.656,1.468-1.031,2.374-1.219,2.749c-0.125,0.281-0.343,0.406-0.968,0.406c-0.28,0-0.374-0.062-0.499-0.375
			c-0.844-2.499-1.781-5.091-2.78-7.59c-0.062-0.188-0.188-0.219-0.25-0.125c-1.905,3.936-2.593,5.56-3.562,7.777
			c-0.062,0.156-0.187,0.281-0.374,0.312c-0.25,0-0.25,0-0.438-0.062c-0.249-0.062-0.437-0.219-0.53-0.562
			c-1.031-3.061-2.25-6.153-3.562-9.464c-0.593-1.468-0.812-1.687-1.905-1.999c-0.094-0.031-0.156-0.062-0.094-0.219l0.219-0.625
			c0.031-0.219,0.094-0.25,0.219-0.25c1.749,0,3.248-0.094,5.029-0.094c0.25,0,0.281,0.062,0.312,0.25L70.542,81.636z"/>
		<path fill="#0089CE" d="M88.352,84.384c-0.25,0.062-0.438,0.094-0.625,0.094c-0.125,0-0.469-0.281-0.469-0.438
			c0-0.25,0.125-0.5,0.312-0.781c0.656-0.968,3.03-2.374,3.967-2.686c0.75-0.25,1.406-0.406,1.875-0.406
			c1.468,0,2.279,0.594,2.811,1.156c0.562,0.562,0.688,1.25,0.688,1.687c0,2.312-0.062,4.654-0.062,6.747
			c0,1.655,0.25,2.311,0.75,2.311c0.469,0,1.499-0.437,1.686-0.5c0.094,0,0.312,0.219,0.312,0.344l-0.062,0.718
			c-0.031,0.094-0.094,0.219-0.219,0.281c-0.405,0.281-2.623,0.937-3.686,0.937c-0.655,0-1.155-0.312-1.374-1.687
			c-1.374,0.594-3.748,1.656-4.372,1.687c-0.469,0-1.188-0.156-1.938-0.812c-0.5-0.437-1.03-1.343-1.03-2.592
			c0-0.906,0.499-1.468,1.437-1.968c1.719-0.937,3.936-1.5,5.966-1.843c0.062-0.594,0.062-1.406,0.062-1.999
			c0-1.25-0.249-1.999-0.562-2.28c-0.25-0.219-1.031-0.531-2-0.531c-0.562,0-0.968,0.125-1.155,0.218
			c-0.125,0.094-0.25,0.281-0.25,1.375c0,0.219-0.031,0.312-0.218,0.375L88.352,84.384z M93.443,91.287
			c0.438-0.281,0.75-0.5,0.812-0.843c0.031-0.406,0.062-1.78,0.062-2.28c0-0.25-0.124-0.375-0.218-0.375
			c-1.938,0.312-3.155,0.687-3.873,1.218c-0.25,0.156-0.406,0.375-0.406,1.031c0,1.25,0.53,1.905,1.623,1.905
			C91.756,91.943,92.662,91.693,93.443,91.287z"/>
		<path fill="#0089CE" d="M101.846,92.349c0.75-0.281,0.875-0.344,0.969-0.781c0.062-0.375,0.094-1.281,0.094-4.061v-2.842
			c0-0.875-0.125-1.031-1.25-1.406c-0.281-0.062-0.468-0.625-0.405-0.875c1.155-0.781,2.624-1.53,3.654-2.218
			c0.156-0.094,0.344-0.156,0.406-0.156c0.155,0.031,0.343,0.281,0.312,0.688c-0.062,0.718-0.156,1.499-0.125,2.311
			c0.688-0.281,2.656-1.843,3.062-2.155c0.344-0.219,0.719-0.469,1.03-0.469c0.812,0,1.812,0.812,1.812,1.593
			c0,0.562-0.781,1.437-1.125,1.75c-0.219,0.156-0.406,0.25-0.594,0.25c-0.156,0-0.343-0.062-0.468-0.187
			c-0.25-0.281-0.781-0.688-1.343-0.688c-0.625,0-1.5,0.594-1.969,1.062c-0.344,0.312-0.406,0.688-0.406,2.218v4.029
			c0,0.843,0.031,1.218,0.125,1.406c0.094,0.187,0.219,0.25,0.594,0.25L108,92.005c0.156,0,0.344,0.188,0.312,0.344l-0.25,1.093
			h-4.404c-1,0-1.781,0.062-2,0.062c-0.156,0-0.219-0.094-0.156-0.281L101.846,92.349z"/>
		<path fill="#0089CE" d="M121.966,81.323c0.656,0.562,1.03,1.312,1.343,2.405c0.375-0.062,0.969-0.188,1.062-0.062
			c0.125,0.125,0.125,0.219,0.062,0.312c-0.094,0.344-0.344,1-0.719,1.093c-2.186,0.562-6.59,1.375-7.934,1.781
			c-0.219,0.062-0.344,0.218-0.344,0.562c0.094,2.936,1.875,4.217,3.967,4.217c1.531,0,2.937-0.594,4.123-1.625
			c0.156-0.187,0.594-0.125,0.562-0.031c-0.031,1.031-0.094,1.187-0.344,1.406c-1.499,1.218-3.061,1.874-4.186,2.187
			c-0.438,0.156-0.905,0.188-1.28,0.188c-2.405,0-3.873-1.437-4.311-1.874c-0.53-0.625-1.468-2.093-1.468-4.186
			c0-2.905,1.687-5.154,3.561-6.435c0.844-0.593,2.062-1.062,2.998-1.062C120.279,80.199,121.404,80.792,121.966,81.323z
			 M117.937,81.573c-0.249,0-0.562,0.125-0.874,0.312c-0.969,0.656-1.531,2.155-1.5,3.779c1.656-0.375,3.186-0.625,4.592-0.968
			c0.281-0.062,0.406-0.156,0.406-0.5C120.561,83.197,119.404,81.573,117.937,81.573z"/>
	</g>
	<g>
		<path fill="#45A17A" d="M1.441,14.579c0-0.757,0.469-2.793,0.469-3.568c0-1.225-0.379-1.676-1.389-2.036
			C0.162,8.848,0,8.56,0,8.416C0,8.325,0.054,8.29,0.072,8.29C1.604,7.947,1.91,7.136,1.91,6.415c0-0.667-0.379-2.847-0.379-3.28
			c0-0.847,0.271-1.838,1.244-2.469C3.586,0.126,4.324,0,4.883,0C4.973,0,5.01,0.036,5.01,0.09c0,0.271-0.055,0.451-0.127,0.487
			c-0.09,0.072-0.216,0.126-0.45,0.18C3.441,0.973,2.828,1.784,2.828,2.775c0,1.063,0.469,2.343,0.487,3.316
			c0,0.955-0.865,1.838-1.839,2.343c1.496,0.757,1.839,1.604,1.839,2.739c0,0.739-0.433,2.216-0.487,2.541
			c-0.107,0.577-0.144,0.811-0.144,1.208c0,1.009,1.405,1.856,2.108,1.892c0.145,0,0.252,0.09,0.252,0.162
			c0,0.234-0.27,0.487-0.414,0.487C2.595,17.462,1.441,16.525,1.441,14.579z"/>
	</g>
	<g>
		<path fill="#45A17A" d="M6.193,102.065c0,0.793-0.469,2.811-0.469,3.586c0,1.226,0.378,1.676,1.387,2.037
			c0.343,0.126,0.523,0.414,0.523,0.559c0,0.09-0.055,0.126-0.072,0.126c-1.531,0.342-1.838,1.153-1.838,1.856
			c0,0.667,0.378,2.865,0.378,3.316c0,0.847-0.288,1.82-1.243,2.451c-0.811,0.523-1.55,0.667-2.127,0.667
			c-0.072,0-0.107-0.036-0.107-0.09c0-0.27,0.054-0.45,0.107-0.486c0.09-0.054,0.217-0.126,0.451-0.18
			c1.027-0.216,1.621-0.991,1.621-2c0-1.081-0.469-2.343-0.469-3.334c0-0.955,0.848-1.838,1.857-2.342
			c-1.514-0.757-1.857-1.604-1.857-2.739c0-0.739,0.434-2.217,0.487-2.541c0.09-0.577,0.126-0.793,0.126-1.208
			c0-1.027-1.352-1.856-2.127-1.892c-0.144,0-0.234-0.108-0.234-0.162c0-0.216,0.271-0.486,0.396-0.486
			C5.039,99.2,6.193,100.137,6.193,102.065z"/>
	</g>
	<g>
		<path fill="#0089CE" d="M157.92,44.67c0.016-0.031,0.391,0.062,0.391,0.094c0.031,0.156,0.078,0.172,0.25,0.188
			c0.219,0.016,0.609,0.016,1.124,0.016c0.671,0,0.921-0.016,1.108-0.031c0.281-0.016,0.375-0.031,0.452-0.234
			c0.016-0.031,0.469,0.016,0.469,0.062c-0.078,0.265-0.125,0.531-0.141,1.124c0,0.031-0.515-0.016-0.515-0.031
			c0.062-0.25,0.062-0.343-0.047-0.359c-0.203-0.047-0.422-0.047-0.625-0.047c-0.109,0-0.125,0.031-0.125,0.109
			c-0.031,0.266-0.047,1.062-0.047,1.452c0,0.781,0.031,0.921,0.688,0.953c0.031,0,0.016,0.437-0.062,0.437
			c-0.188,0-0.656,0-0.922,0c-0.732,0-1.279,0-1.326,0s-0.094-0.375-0.078-0.375c0.562-0.062,0.625-0.125,0.625-1.186
			c0-0.734,0-1.171-0.062-1.358c-0.375,0-0.781,0-0.906,0.14c-0.047,0.031-0.078,0.094-0.172,0.344
			c-0.016,0.031-0.499-0.141-0.499-0.188C157.499,45.7,157.842,44.904,157.92,44.67z M166.146,48.401c-0.062,0-0.468,0-0.671,0.016
			c-0.078,0.016-0.094,0-0.078-0.328c0-0.109,0.016-0.125,0.062-0.14c0.234,0,0.28-0.078,0.296-0.234s0.016-0.39,0.016-1.67
			c0-0.062-0.016-0.078-0.077,0c-0.234,0.406-0.858,1.624-1.14,2.17c-0.062,0.125-0.156,0.188-0.219,0.188
			c-0.016,0-0.078-0.031-0.109-0.078c-0.109-0.203-0.937-1.904-1.123-2.295c-0.062-0.109-0.094-0.078-0.094-0.046
			c-0.031,0.905-0.062,1.53,0.047,1.795c0.016,0.094,0.078,0.125,0.437,0.156c0.031,0,0.016,0.468,0,0.468
			c-0.515-0.016-1.046-0.016-1.577-0.016c0-0.031-0.047-0.468-0.016-0.468c0.375-0.031,0.453-0.094,0.484-0.312
			c0.047-0.312,0.078-0.78,0.094-2.061c0-0.156-0.078-0.187-0.453-0.234c0-0.031,0.062-0.39,0.078-0.437c0.156,0,0.609,0.016,1.53,0
			c0.062,0.187,0.562,1.233,1.015,1.92c0.453-0.671,0.968-1.639,1.123-1.92c0.391,0,1.125,0,1.438,0c0.03,0,0,0.453-0.016,0.453
			c-0.328,0.016-0.422,0.062-0.438,0.312c-0.047,0.281,0,1.436,0.016,1.982c0.016,0.281,0.219,0.297,0.438,0.312
			c0.016,0,0.046,0.468,0.016,0.468H166.146z"/>
	</g>
</g>
</svg>
